<mxfile host="app.diagrams.net" modified="2021-04-26T03:01:33.864Z" agent="5.0 (Windows NT 10.0; Win64; x64) AppleWebKit/537.36 (KHTML, like Gecko) Chrome/90.0.4430.85 Safari/537.36" etag="IfaYmtllg08Vo6MNkD-Q" version="14.6.6" type="github">
  <diagram id="XYINF_8wvX3YzZv-r1rA" name="Page-1">
    <mxGraphModel dx="1422" dy="706" grid="0" gridSize="10" guides="1" tooltips="1" connect="1" arrows="1" fold="1" page="0" pageScale="1" pageWidth="827" pageHeight="1169" math="0" shadow="0">
      <root>
        <mxCell id="0" />
        <mxCell id="1" parent="0" />
        <mxCell id="lxAqtbLrQGdeszAJHttK-1" value="" style="edgeStyle=orthogonalEdgeStyle;rounded=0;orthogonalLoop=1;jettySize=auto;html=1;" parent="1" source="lxAqtbLrQGdeszAJHttK-2" target="lxAqtbLrQGdeszAJHttK-5" edge="1">
          <mxGeometry relative="1" as="geometry" />
        </mxCell>
        <mxCell id="lxAqtbLrQGdeszAJHttK-2" value="共享队列中获取数据帧" style="rounded=0;whiteSpace=wrap;html=1;" parent="1" vertex="1">
          <mxGeometry x="320" y="150" width="130" height="30" as="geometry" />
        </mxCell>
        <mxCell id="lxAqtbLrQGdeszAJHttK-3" value="" style="edgeStyle=orthogonalEdgeStyle;rounded=0;orthogonalLoop=1;jettySize=auto;html=1;" parent="1" source="lxAqtbLrQGdeszAJHttK-5" target="lxAqtbLrQGdeszAJHttK-6" edge="1">
          <mxGeometry relative="1" as="geometry" />
        </mxCell>
        <mxCell id="lxAqtbLrQGdeszAJHttK-5" value="数据帧为空" style="rhombus;whiteSpace=wrap;html=1;" parent="1" vertex="1">
          <mxGeometry x="315" y="200" width="140" height="50" as="geometry" />
        </mxCell>
        <mxCell id="lxAqtbLrQGdeszAJHttK-6" value="线程终止并退出" style="rounded=0;whiteSpace=wrap;html=1;" parent="1" vertex="1">
          <mxGeometry x="480" y="210" width="120" height="35" as="geometry" />
        </mxCell>
        <mxCell id="lxAqtbLrQGdeszAJHttK-7" value="" style="edgeStyle=orthogonalEdgeStyle;rounded=0;orthogonalLoop=1;jettySize=auto;html=1;" parent="1" source="lxAqtbLrQGdeszAJHttK-8" target="lxAqtbLrQGdeszAJHttK-2" edge="1">
          <mxGeometry relative="1" as="geometry" />
        </mxCell>
        <mxCell id="lxAqtbLrQGdeszAJHttK-8" value="" style="rounded=0;whiteSpace=wrap;html=1;" parent="1" vertex="1">
          <mxGeometry x="320" y="90" width="130" height="30" as="geometry" />
        </mxCell>
        <mxCell id="lxAqtbLrQGdeszAJHttK-12" value="" style="edgeStyle=orthogonalEdgeStyle;rounded=0;orthogonalLoop=1;jettySize=auto;html=1;exitX=0.5;exitY=1;exitDx=0;exitDy=0;" parent="1" source="lxAqtbLrQGdeszAJHttK-5" target="lxAqtbLrQGdeszAJHttK-16" edge="1">
          <mxGeometry relative="1" as="geometry">
            <mxPoint x="385" y="370" as="sourcePoint" />
          </mxGeometry>
        </mxCell>
        <mxCell id="lxAqtbLrQGdeszAJHttK-15" value="" style="edgeStyle=orthogonalEdgeStyle;rounded=0;orthogonalLoop=1;jettySize=auto;html=1;" parent="1" source="lxAqtbLrQGdeszAJHttK-16" target="lxAqtbLrQGdeszAJHttK-19" edge="1">
          <mxGeometry relative="1" as="geometry" />
        </mxCell>
        <mxCell id="lxAqtbLrQGdeszAJHttK-16" value="执行Egress流水线" style="whiteSpace=wrap;html=1;" parent="1" vertex="1">
          <mxGeometry x="325" y="277" width="120" height="30" as="geometry" />
        </mxCell>
        <mxCell id="lxAqtbLrQGdeszAJHttK-17" value="" style="edgeStyle=orthogonalEdgeStyle;rounded=0;orthogonalLoop=1;jettySize=auto;html=1;exitX=1;exitY=0.5;exitDx=0;exitDy=0;" parent="1" source="lxAqtbLrQGdeszAJHttK-19" target="lxAqtbLrQGdeszAJHttK-20" edge="1">
          <mxGeometry relative="1" as="geometry">
            <Array as="points">
              <mxPoint x="503" y="361" />
              <mxPoint x="503" y="361" />
            </Array>
          </mxGeometry>
        </mxCell>
        <mxCell id="lxAqtbLrQGdeszAJHttK-18" value="" style="edgeStyle=orthogonalEdgeStyle;rounded=0;orthogonalLoop=1;jettySize=auto;html=1;entryX=0.5;entryY=0;entryDx=0;entryDy=0;" parent="1" source="lxAqtbLrQGdeszAJHttK-19" target="lxAqtbLrQGdeszAJHttK-34" edge="1">
          <mxGeometry relative="1" as="geometry">
            <mxPoint x="385" y="416" as="targetPoint" />
          </mxGeometry>
        </mxCell>
        <mxCell id="lxAqtbLrQGdeszAJHttK-19" value="是否执行包复制" style="rhombus;whiteSpace=wrap;html=1;" parent="1" vertex="1">
          <mxGeometry x="315" y="336" width="140" height="50" as="geometry" />
        </mxCell>
        <mxCell id="lxAqtbLrQGdeszAJHttK-20" value="将复制的数据帧传入共享队列" style="whiteSpace=wrap;html=1;" parent="1" vertex="1">
          <mxGeometry x="480" y="343.5" width="165" height="35" as="geometry" />
        </mxCell>
        <mxCell id="lxAqtbLrQGdeszAJHttK-42" value="" style="edgeStyle=orthogonalEdgeStyle;rounded=0;orthogonalLoop=1;jettySize=auto;html=1;" parent="1" source="lxAqtbLrQGdeszAJHttK-28" target="lxAqtbLrQGdeszAJHttK-30" edge="1">
          <mxGeometry relative="1" as="geometry" />
        </mxCell>
        <mxCell id="lxAqtbLrQGdeszAJHttK-43" value="" style="edgeStyle=orthogonalEdgeStyle;rounded=0;orthogonalLoop=1;jettySize=auto;html=1;" parent="1" source="lxAqtbLrQGdeszAJHttK-28" target="lxAqtbLrQGdeszAJHttK-38" edge="1">
          <mxGeometry relative="1" as="geometry" />
        </mxCell>
        <mxCell id="lxAqtbLrQGdeszAJHttK-28" value="是否执行包循环" style="rhombus;whiteSpace=wrap;html=1;" parent="1" vertex="1">
          <mxGeometry x="315" y="470" width="140" height="50" as="geometry" />
        </mxCell>
        <mxCell id="lxAqtbLrQGdeszAJHttK-29" value="" style="edgeStyle=orthogonalEdgeStyle;rounded=0;orthogonalLoop=1;jettySize=auto;html=1;entryX=0;entryY=0.5;entryDx=0;entryDy=0;" parent="1" source="lxAqtbLrQGdeszAJHttK-30" target="lxAqtbLrQGdeszAJHttK-2" edge="1">
          <mxGeometry relative="1" as="geometry">
            <mxPoint x="210" y="459.75" as="targetPoint" />
            <Array as="points">
              <mxPoint x="226" y="165" />
            </Array>
          </mxGeometry>
        </mxCell>
        <mxCell id="lxAqtbLrQGdeszAJHttK-30" value="将数据帧重新传入输入队列" style="whiteSpace=wrap;html=1;" parent="1" vertex="1">
          <mxGeometry x="135.5" y="222" width="160" height="42.5" as="geometry" />
        </mxCell>
        <mxCell id="lxAqtbLrQGdeszAJHttK-41" value="" style="edgeStyle=orthogonalEdgeStyle;rounded=0;orthogonalLoop=1;jettySize=auto;html=1;" parent="1" source="lxAqtbLrQGdeszAJHttK-34" target="lxAqtbLrQGdeszAJHttK-28" edge="1">
          <mxGeometry relative="1" as="geometry" />
        </mxCell>
        <mxCell id="lxAqtbLrQGdeszAJHttK-34" value="deparse数据帧" style="whiteSpace=wrap;html=1;" parent="1" vertex="1">
          <mxGeometry x="325" y="415" width="120" height="30" as="geometry" />
        </mxCell>
        <mxCell id="lxAqtbLrQGdeszAJHttK-38" value="将复制的数据帧传入输出队列" style="whiteSpace=wrap;html=1;" parent="1" vertex="1">
          <mxGeometry x="480" y="477.5" width="165" height="35" as="geometry" />
        </mxCell>
        <mxCell id="BoqRwnU2q2R2DuvIo1M9-23" value="" style="edgeStyle=orthogonalEdgeStyle;rounded=0;orthogonalLoop=1;jettySize=auto;html=1;fontSize=17;" edge="1" parent="1" source="BoqRwnU2q2R2DuvIo1M9-1" target="BoqRwnU2q2R2DuvIo1M9-2">
          <mxGeometry relative="1" as="geometry" />
        </mxCell>
        <mxCell id="BoqRwnU2q2R2DuvIo1M9-1" value="&lt;span style=&quot;font-size: 17px;&quot;&gt;输出线程启动&lt;/span&gt;" style="strokeWidth=1;html=1;shape=mxgraph.flowchart.terminator;whiteSpace=wrap;fontSize=17;" vertex="1" parent="1">
          <mxGeometry x="1107" y="78" width="120" height="60" as="geometry" />
        </mxCell>
        <mxCell id="BoqRwnU2q2R2DuvIo1M9-6" value="" style="edgeStyle=orthogonalEdgeStyle;rounded=0;orthogonalLoop=1;jettySize=auto;html=1;fontSize=17;" edge="1" parent="1" source="BoqRwnU2q2R2DuvIo1M9-2" target="BoqRwnU2q2R2DuvIo1M9-3">
          <mxGeometry relative="1" as="geometry" />
        </mxCell>
        <mxCell id="BoqRwnU2q2R2DuvIo1M9-2" value="&lt;span style=&quot;font-size: 17px;&quot;&gt;从共享队列队首获取数据帧&lt;/span&gt;" style="rounded=0;whiteSpace=wrap;html=1;fontSize=17;" vertex="1" parent="1">
          <mxGeometry x="1089" y="174" width="156" height="53" as="geometry" />
        </mxCell>
        <mxCell id="BoqRwnU2q2R2DuvIo1M9-5" value="Y" style="edgeStyle=orthogonalEdgeStyle;rounded=0;orthogonalLoop=1;jettySize=auto;html=1;fontSize=17;" edge="1" parent="1" source="BoqRwnU2q2R2DuvIo1M9-3" target="BoqRwnU2q2R2DuvIo1M9-4">
          <mxGeometry x="-0.7391" relative="1" as="geometry">
            <mxPoint as="offset" />
          </mxGeometry>
        </mxCell>
        <mxCell id="BoqRwnU2q2R2DuvIo1M9-8" value="N" style="edgeStyle=orthogonalEdgeStyle;rounded=0;orthogonalLoop=1;jettySize=auto;html=1;fontSize=17;" edge="1" parent="1" source="BoqRwnU2q2R2DuvIo1M9-3" target="BoqRwnU2q2R2DuvIo1M9-7">
          <mxGeometry x="0.1489" relative="1" as="geometry">
            <mxPoint as="offset" />
          </mxGeometry>
        </mxCell>
        <mxCell id="BoqRwnU2q2R2DuvIo1M9-3" value="数据帧为空" style="rhombus;whiteSpace=wrap;html=1;fontSize=17;" vertex="1" parent="1">
          <mxGeometry x="1093" y="260" width="148" height="67" as="geometry" />
        </mxCell>
        <mxCell id="BoqRwnU2q2R2DuvIo1M9-29" value="" style="edgeStyle=orthogonalEdgeStyle;rounded=0;orthogonalLoop=1;jettySize=auto;html=1;fontSize=17;" edge="1" parent="1" source="BoqRwnU2q2R2DuvIo1M9-4" target="BoqRwnU2q2R2DuvIo1M9-28">
          <mxGeometry relative="1" as="geometry" />
        </mxCell>
        <mxCell id="BoqRwnU2q2R2DuvIo1M9-4" value="&#xa;&#xa;&lt;span style=&quot;color: rgb(0, 0, 0); font-family: helvetica; font-size: 17px; font-style: normal; font-weight: 400; letter-spacing: normal; text-align: center; text-indent: 0px; text-transform: none; word-spacing: 0px; background-color: rgb(255, 255, 255); display: inline; float: none;&quot;&gt;线程终止并退出&lt;/span&gt;&#xa;&#xa;" style="rounded=0;whiteSpace=wrap;html=1;fontSize=17;" vertex="1" parent="1">
          <mxGeometry x="1275" y="267" width="156" height="53" as="geometry" />
        </mxCell>
        <mxCell id="BoqRwnU2q2R2DuvIo1M9-11" value="" style="edgeStyle=orthogonalEdgeStyle;rounded=0;orthogonalLoop=1;jettySize=auto;html=1;fontSize=17;" edge="1" parent="1" source="BoqRwnU2q2R2DuvIo1M9-7" target="BoqRwnU2q2R2DuvIo1M9-9">
          <mxGeometry relative="1" as="geometry" />
        </mxCell>
        <mxCell id="BoqRwnU2q2R2DuvIo1M9-7" value="&lt;span style=&quot;font-size: 17px;&quot;&gt;执行Egress流水线&lt;/span&gt;" style="rounded=0;whiteSpace=wrap;html=1;fontSize=17;" vertex="1" parent="1">
          <mxGeometry x="1089" y="360" width="156" height="53" as="geometry" />
        </mxCell>
        <mxCell id="BoqRwnU2q2R2DuvIo1M9-12" value="Y" style="edgeStyle=orthogonalEdgeStyle;rounded=0;orthogonalLoop=1;jettySize=auto;html=1;fontSize=17;" edge="1" parent="1" source="BoqRwnU2q2R2DuvIo1M9-9" target="BoqRwnU2q2R2DuvIo1M9-10">
          <mxGeometry x="-0.7826" relative="1" as="geometry">
            <mxPoint as="offset" />
          </mxGeometry>
        </mxCell>
        <mxCell id="BoqRwnU2q2R2DuvIo1M9-15" value="N" style="edgeStyle=orthogonalEdgeStyle;rounded=0;orthogonalLoop=1;jettySize=auto;html=1;fontSize=17;" edge="1" parent="1" source="BoqRwnU2q2R2DuvIo1M9-9" target="BoqRwnU2q2R2DuvIo1M9-14">
          <mxGeometry x="-0.619" relative="1" as="geometry">
            <mxPoint as="offset" />
          </mxGeometry>
        </mxCell>
        <mxCell id="BoqRwnU2q2R2DuvIo1M9-9" value="执行帧复制" style="rhombus;whiteSpace=wrap;html=1;fontSize=17;" vertex="1" parent="1">
          <mxGeometry x="1093" y="451" width="148" height="67" as="geometry" />
        </mxCell>
        <mxCell id="BoqRwnU2q2R2DuvIo1M9-26" value="" style="edgeStyle=orthogonalEdgeStyle;rounded=0;orthogonalLoop=1;jettySize=auto;html=1;entryX=1;entryY=0.5;entryDx=0;entryDy=0;fontSize=17;" edge="1" parent="1" source="BoqRwnU2q2R2DuvIo1M9-10" target="BoqRwnU2q2R2DuvIo1M9-14">
          <mxGeometry relative="1" as="geometry">
            <mxPoint x="1353" y="587.5" as="targetPoint" />
            <Array as="points">
              <mxPoint x="1353" y="583" />
            </Array>
          </mxGeometry>
        </mxCell>
        <mxCell id="BoqRwnU2q2R2DuvIo1M9-10" value="将复制的数据帧传入共享队列" style="rounded=0;whiteSpace=wrap;html=1;fontSize=17;" vertex="1" parent="1">
          <mxGeometry x="1275" y="458" width="156" height="53" as="geometry" />
        </mxCell>
        <mxCell id="BoqRwnU2q2R2DuvIo1M9-24" value="" style="edgeStyle=orthogonalEdgeStyle;rounded=0;orthogonalLoop=1;jettySize=auto;html=1;fontSize=17;" edge="1" parent="1" source="BoqRwnU2q2R2DuvIo1M9-14" target="BoqRwnU2q2R2DuvIo1M9-16">
          <mxGeometry relative="1" as="geometry" />
        </mxCell>
        <mxCell id="BoqRwnU2q2R2DuvIo1M9-14" value="deparse数据帧" style="rounded=0;whiteSpace=wrap;html=1;fontSize=17;" vertex="1" parent="1">
          <mxGeometry x="1089" y="556" width="156" height="53" as="geometry" />
        </mxCell>
        <mxCell id="BoqRwnU2q2R2DuvIo1M9-20" value="Y" style="edgeStyle=orthogonalEdgeStyle;rounded=0;orthogonalLoop=1;jettySize=auto;html=1;entryX=0.5;entryY=1;entryDx=0;entryDy=0;fontSize=17;" edge="1" parent="1" source="BoqRwnU2q2R2DuvIo1M9-16" target="BoqRwnU2q2R2DuvIo1M9-18">
          <mxGeometry x="-0.8911" relative="1" as="geometry">
            <mxPoint x="999" y="685.5" as="targetPoint" />
            <mxPoint as="offset" />
          </mxGeometry>
        </mxCell>
        <mxCell id="BoqRwnU2q2R2DuvIo1M9-27" value="N" style="edgeStyle=orthogonalEdgeStyle;rounded=0;orthogonalLoop=1;jettySize=auto;html=1;fontSize=17;" edge="1" parent="1" source="BoqRwnU2q2R2DuvIo1M9-16" target="BoqRwnU2q2R2DuvIo1M9-17">
          <mxGeometry x="-0.7826" relative="1" as="geometry">
            <mxPoint as="offset" />
          </mxGeometry>
        </mxCell>
        <mxCell id="BoqRwnU2q2R2DuvIo1M9-16" value="执行包循环" style="rhombus;whiteSpace=wrap;html=1;fontSize=17;" vertex="1" parent="1">
          <mxGeometry x="1093" y="652" width="148" height="67" as="geometry" />
        </mxCell>
        <mxCell id="BoqRwnU2q2R2DuvIo1M9-17" value="将复制的数据帧传入输出队列" style="rounded=0;whiteSpace=wrap;html=1;fontSize=17;" vertex="1" parent="1">
          <mxGeometry x="1275" y="659" width="156" height="53" as="geometry" />
        </mxCell>
        <mxCell id="BoqRwnU2q2R2DuvIo1M9-22" value="" style="edgeStyle=orthogonalEdgeStyle;rounded=0;orthogonalLoop=1;jettySize=auto;html=1;entryX=0;entryY=0.5;entryDx=0;entryDy=0;fontSize=17;" edge="1" parent="1" source="BoqRwnU2q2R2DuvIo1M9-18" target="BoqRwnU2q2R2DuvIo1M9-2">
          <mxGeometry relative="1" as="geometry">
            <mxPoint x="964" y="354.5" as="targetPoint" />
            <Array as="points">
              <mxPoint x="959" y="201" />
            </Array>
          </mxGeometry>
        </mxCell>
        <mxCell id="BoqRwnU2q2R2DuvIo1M9-18" value="将数据帧重新传入输入队列" style="rounded=0;whiteSpace=wrap;html=1;fontSize=17;" vertex="1" parent="1">
          <mxGeometry x="886" y="431" width="156" height="53" as="geometry" />
        </mxCell>
        <mxCell id="BoqRwnU2q2R2DuvIo1M9-28" value="&lt;span style=&quot;font-size: 17px&quot;&gt;输出线程结束&lt;/span&gt;" style="strokeWidth=1;html=1;shape=mxgraph.flowchart.terminator;whiteSpace=wrap;fontSize=17;" vertex="1" parent="1">
          <mxGeometry x="1293" y="353" width="120" height="60" as="geometry" />
        </mxCell>
      </root>
    </mxGraphModel>
  </diagram>
</mxfile>
